<svg xmlns="http://www.w3.org/2000/svg" width="1200" height="680" viewBox="0 0 1200 680">
  <rect width="1200" height="680" rx="28" fill="#0d1612"/>
  <rect width="230" height="680" rx="28" fill="#10251e"/>
  <rect x="28" y="34" width="48" height="48" rx="14" fill="#a6f2cf"/>
  <text x="52" y="65" text-anchor="middle" fill="#153b30" font-family="Arial" font-size="18" font-weight="700">FM</text>
  <rect x="24" y="112" width="182" height="48" rx="12" fill="#214a3e"/>
  <text x="270" y="70" fill="#edf7f1" font-family="Arial" font-size="30" font-weight="700">Your future, modeled clearly.</text>
  <rect x="270" y="108" width="410" height="238" rx="24" fill="#153b30"/>
  <circle cx="382" cy="234" r="66" fill="none" stroke="#a6f2cf" stroke-width="18"/>
  <text x="382" y="247" text-anchor="middle" fill="white" font-family="Arial" font-size="42" font-weight="700">90</text>
  <rect x="700" y="108" width="454" height="238" rx="24" fill="#14211c" stroke="#2a3b34"/>
  <path d="M730 306 C810 282 850 291 916 238 C1000 170 1090 204 1126 164" fill="none" stroke="#61c99e" stroke-width="6"/>
  <path d="M730 306 C810 286 870 278 930 246 C1010 204 1080 212 1126 190" fill="none" stroke="#a5b2ac" stroke-width="3" stroke-dasharray="8 8"/>
  <rect x="270" y="370" width="208" height="112" rx="18" fill="#14211c" stroke="#2a3b34"/>
  <rect x="494" y="370" width="208" height="112" rx="18" fill="#14211c" stroke="#2a3b34"/>
  <rect x="718" y="370" width="208" height="112" rx="18" fill="#14211c" stroke="#2a3b34"/>
  <rect x="942" y="370" width="212" height="112" rx="18" fill="#14211c" stroke="#2a3b34"/>
  <text x="712" y="622" text-anchor="middle" fill="#a6f2cf" font-family="Arial" font-size="23" font-weight="700">Web dashboard capture placeholder</text>
</svg>
